<svg width="20" height="21" viewBox="0 0 20 21" fill="none" xmlns="http://www.w3.org/2000/svg">
<path fill-rule="evenodd" clip-rule="evenodd" d="M1.66699 10.5128C1.66699 6.12293 5.17533 2.16699 10.017 2.16699C14.7503 2.16699 18.3337 6.04781 18.3337 10.4878C18.3337 15.6372 14.1337 18.8337 10.0003 18.8337C8.63366 18.8337 7.11699 18.4664 5.90033 17.7487C5.47533 17.49 5.11699 17.298 4.65866 17.4482L2.97533 17.949C2.55033 18.0825 2.16699 17.7487 2.29199 17.298L2.85033 15.4286C2.94199 15.1698 2.92533 14.8944 2.79199 14.6774C2.07533 13.3588 1.66699 11.9149 1.66699 10.5128ZM8.91699 10.5128C8.91699 11.1054 9.39199 11.5811 9.98366 11.5895C10.5753 11.5895 11.0503 11.1054 11.0503 10.5212C11.0503 9.92863 10.5753 9.45292 9.98366 9.45292C9.40033 9.44457 8.91699 9.92863 8.91699 10.5128ZM12.7587 10.5212C12.7587 11.1054 13.2337 11.5895 13.8253 11.5895C14.417 11.5895 14.892 11.1054 14.892 10.5212C14.892 9.92863 14.417 9.45292 13.8253 9.45292C13.2337 9.45292 12.7587 9.92863 12.7587 10.5212ZM6.14199 11.5895C5.55866 11.5895 5.07533 11.1054 5.07533 10.5212C5.07533 9.92863 5.55033 9.45292 6.14199 9.45292C6.73366 9.45292 7.20866 9.92863 7.20866 10.5212C7.20866 11.1054 6.73366 11.5811 6.14199 11.5895Z" fill="url(#paint0_linear_475_484)"/>
<defs>
<linearGradient id="paint0_linear_475_484" x1="1.66699" y1="2.16699" x2="21.7704" y2="9.90567" gradientUnits="userSpaceOnUse">
<stop stop-color="#FF3B30"/>
<stop offset="0.120192" stop-color="#FF9500"/>
<stop offset="0.274038" stop-color="#FFCC00"/>
<stop offset="0.461538" stop-color="#34C759"/>
<stop offset="0.649038" stop-color="#007AFF"/>
<stop offset="0.793269" stop-color="#5856D6"/>
<stop offset="1" stop-color="#AF52DE"/>
</linearGradient>
</defs>
</svg>
