<svg width="21" height="21" viewBox="0 0 21 21" fill="none" xmlns="http://www.w3.org/2000/svg">
<path fill-rule="evenodd" clip-rule="evenodd" d="M8.41699 10.9611C10.7125 10.9611 12.5525 9.09722 12.5525 6.77204C12.5525 4.44687 10.7125 2.58301 8.41699 2.58301C6.12152 2.58301 4.28147 4.44687 4.28147 6.77204C4.28147 9.09722 6.12152 10.9611 8.41699 10.9611ZM8.41699 13.0123C5.04551 13.0123 2.16699 13.5514 2.16699 15.705C2.16699 17.8579 5.028 18.4163 8.41699 18.4163C11.7876 18.4163 14.667 17.8773 14.667 15.7236C14.667 13.57 11.806 13.0123 8.41699 13.0123ZM17.0819 8.48956H18.0845C18.4972 8.48956 18.8337 8.83077 18.8337 9.24924C18.8337 9.66772 18.4972 10.0089 18.0845 10.0089H17.0819V10.99C17.0819 11.4085 16.7463 11.7497 16.3328 11.7497C15.9201 11.7497 15.5837 11.4085 15.5837 10.99V10.0089H14.5828C14.1693 10.0089 13.8337 9.66772 13.8337 9.24924C13.8337 8.83077 14.1693 8.48956 14.5828 8.48956H15.5837V7.50936C15.5837 7.09088 15.9201 6.74967 16.3328 6.74967C16.7463 6.74967 17.0819 7.09088 17.0819 7.50936V8.48956Z" fill="white"/>
</svg>
