<svg width="25" height="24" viewBox="0 0 25 24" fill="none" xmlns="http://www.w3.org/2000/svg">
<path d="M8.41992 13.4697C9.82978 13.4697 10.9597 14.6105 10.96 16.0303V19.4395C10.96 20.8495 9.82992 22 8.41992 22H5.04004C3.64004 22 2.5 20.8495 2.5 19.4395V16.0303C2.50023 14.6105 3.64018 13.4697 5.04004 13.4697H8.41992ZM19.96 13.4697C21.3598 13.4697 22.4998 14.6105 22.5 16.0303V19.4395C22.5 20.8495 21.36 22 19.96 22H16.5801C15.1701 22 14.04 20.8494 14.04 19.4395V16.0303C14.0403 14.6105 15.1702 13.4697 16.5801 13.4697H19.96ZM8.41992 2C9.82977 2 10.9597 3.14975 10.96 4.56055V7.96973C10.96 9.38973 9.82992 10.5303 8.41992 10.5303H5.04004C3.64004 10.5303 2.5 9.38973 2.5 7.96973V4.56055C2.50024 3.14975 3.64019 2 5.04004 2H8.41992ZM19.96 2C21.3598 2 22.4998 3.14975 22.5 4.56055V7.96973C22.5 9.38973 21.36 10.5303 19.96 10.5303H16.5801C15.1701 10.5303 14.04 9.38972 14.04 7.96973V4.56055C14.0403 3.14976 15.1702 2.00001 16.5801 2H19.96Z" fill="#9E9E9E"/>
</svg>
