<svg width="25" height="25" viewBox="0 0 25 25" fill="none" xmlns="http://www.w3.org/2000/svg">
<path d="M18.2085 19.0753V14.9503C18.2085 13.774 17.8603 12.624 17.2078 11.6452C16.5553 10.6664 15.6277 9.90273 14.5418 9.4503C14.5418 8.84251 14.3004 8.25962 13.8706 7.82985C13.4408 7.40008 12.858 7.15863 12.2502 7.15863C11.6424 7.15863 11.0595 7.40008 10.6297 7.82985C10.1999 8.25962 9.9585 8.84251 9.9585 9.4503C8.87266 9.90273 7.94504 10.6664 7.29253 11.6452C6.64002 12.624 6.29183 13.774 6.29183 14.9503V19.0753C6.29183 19.5615 6.09868 20.0278 5.75486 20.3716C5.41104 20.7155 4.94473 20.9086 4.4585 20.9086H20.0418C19.5556 20.9086 19.0893 20.7155 18.7455 20.3716C18.4017 20.0278 18.2085 19.5615 18.2085 19.0753Z" fill="#FFEF5E"/>
<path d="M12.2502 7.15863C11.6424 7.15863 11.0595 7.40008 10.6297 7.82985C10.1999 8.25962 9.9585 8.84251 9.9585 9.4503C8.87266 9.90273 7.94504 10.6664 7.29253 11.6452C6.64002 12.624 6.29183 13.774 6.29183 14.9503V19.0753C6.29183 19.5615 6.09868 20.0278 5.75486 20.3716C5.41104 20.7155 4.94473 20.9086 4.4585 20.9086H12.2502V7.15863Z" fill="#FFF9BF"/>
<path d="M14.0832 20.9086C14.0832 21.3948 13.89 21.8612 13.5462 22.205C13.2024 22.5488 12.7361 22.7419 12.2498 22.7419C11.7636 22.7419 11.2973 22.5488 10.9535 22.205C10.6097 21.8612 10.4165 21.3948 10.4165 20.9086H14.0832Z" fill="#FFBC44" stroke="#191919" stroke-linecap="round" stroke-linejoin="round"/>
<path d="M4.4585 9.4503C4.4585 8.11317 4.98967 6.8308 5.93517 5.8853C6.88066 4.93981 8.16303 4.40863 9.50016 4.40863" stroke="#191919" stroke-linecap="round" stroke-linejoin="round"/>
<path d="M1.7085 9.4503C1.7085 7.38382 2.5294 5.40198 3.99062 3.94076C5.45184 2.47954 7.43368 1.65863 9.50016 1.65863" stroke="#191919" stroke-linecap="round" stroke-linejoin="round"/>
<path d="M20.0417 9.4503C20.0417 8.11317 19.5105 6.8308 18.565 5.8853C17.6195 4.93981 16.3371 4.40863 15 4.40863" stroke="#191919" stroke-linecap="round" stroke-linejoin="round"/>
<path d="M22.7917 9.4503C22.7917 7.38382 21.9708 5.40198 20.5095 3.94076C19.0483 2.47954 17.0665 1.65863 15 1.65863" stroke="#191919" stroke-linecap="round" stroke-linejoin="round"/>
<path d="M18.2085 19.0753V14.9503C18.2085 13.774 17.8603 12.624 17.2078 11.6452C16.5553 10.6664 15.6277 9.90273 14.5418 9.4503C14.5418 8.84251 14.3004 8.25962 13.8706 7.82985C13.4408 7.40008 12.858 7.15863 12.2502 7.15863C11.6424 7.15863 11.0595 7.40008 10.6297 7.82985C10.1999 8.25962 9.9585 8.84251 9.9585 9.4503C8.87266 9.90273 7.94504 10.6664 7.29253 11.6452C6.64002 12.624 6.29183 13.774 6.29183 14.9503V19.0753C6.29183 19.5615 6.09868 20.0278 5.75486 20.3716C5.41104 20.7155 4.94473 20.9086 4.4585 20.9086H20.0418C19.5556 20.9086 19.0893 20.7155 18.7455 20.3716C18.4017 20.0278 18.2085 19.5615 18.2085 19.0753Z" stroke="#191919" stroke-linecap="round" stroke-linejoin="round"/>
</svg>
