<svg width="25" height="25" viewBox="0 0 25 25" fill="none" xmlns="http://www.w3.org/2000/svg">
<path d="M3.86328 7.27344H6.86328" stroke="#141B34" stroke-width="1.5" stroke-linecap="round" stroke-linejoin="round"/>
<path d="M3.86328 17.2734H9.86328" stroke="#141B34" stroke-width="1.5" stroke-linecap="round" stroke-linejoin="round"/>
<path d="M18.8633 17.2734H21.8633" stroke="#141B34" stroke-width="1.5" stroke-linecap="round" stroke-linejoin="round"/>
<path d="M15.8633 7.27344H21.8633" stroke="#141B34" stroke-width="1.5" stroke-linecap="round" stroke-linejoin="round"/>
<path d="M6.86328 7.27344C6.86328 6.34156 6.86328 5.87562 7.01552 5.50807C7.21851 5.01802 7.60786 4.62867 8.09791 4.42568C8.46546 4.27344 8.9314 4.27344 9.86328 4.27344C10.7952 4.27344 11.2611 4.27344 11.6287 4.42568C12.1187 4.62867 12.5081 5.01802 12.7111 5.50807C12.8633 5.87562 12.8633 6.34156 12.8633 7.27344C12.8633 8.20532 12.8633 8.67126 12.7111 9.03881C12.5081 9.52886 12.1187 9.91821 11.6287 10.1212C11.2611 10.2734 10.7952 10.2734 9.86328 10.2734C8.9314 10.2734 8.46546 10.2734 8.09791 10.1212C7.60786 9.91821 7.21851 9.52886 7.01552 9.03881C6.86328 8.67126 6.86328 8.20532 6.86328 7.27344Z" stroke="#141B34" stroke-width="1.5"/>
<path d="M12.8633 17.2734C12.8633 16.3415 12.8633 15.8756 13.0155 15.508C13.2185 15.018 13.6079 14.6286 14.0979 14.4256C14.4655 14.2734 14.9314 14.2734 15.8633 14.2734C16.7952 14.2734 17.2611 14.2734 17.6287 14.4256C18.1187 14.6286 18.5081 15.018 18.7111 15.508C18.8633 15.8756 18.8633 16.3415 18.8633 17.2734C18.8633 18.2053 18.8633 18.6712 18.7111 19.0388C18.5081 19.5288 18.1187 19.9182 17.6287 20.1212C17.2611 20.2734 16.7952 20.2734 15.8633 20.2734C14.9314 20.2734 14.4655 20.2734 14.0979 20.1212C13.6079 19.9182 13.2185 19.5288 13.0155 19.0388C12.8633 18.6712 12.8633 18.2053 12.8633 17.2734Z" stroke="#141B34" stroke-width="1.5"/>
</svg>
