<svg width="196" height="78" viewBox="0 0 196 78" fill="none" xmlns="http://www.w3.org/2000/svg">
<path d="M54.1092 23.7014H59.6992V46.2581C59.6992 48.7675 59.8303 50.5466 60.0925 51.5953C60.3734 52.644 60.8322 53.5522 61.4689 54.32C62.63 55.6871 64.0064 56.7077 65.5982 57.3819C67.19 58.0561 68.9972 58.3932 71.0197 58.3932C74.428 58.3932 77.1715 57.513 79.2502 55.7527C81.3289 53.9923 82.3682 51.6702 82.3682 48.7862V23.7014H87.9582V48.9548C87.9582 53.3369 86.3945 56.895 83.2671 59.6291C80.1397 62.3446 76.0572 63.7023 71.0197 63.7023C68.0421 63.7023 65.3548 63.1779 62.9577 62.1292C60.5606 61.0618 58.5381 59.5074 56.8902 57.4662C55.8789 56.2489 55.1579 54.8912 54.7272 53.3931C54.3152 51.8949 54.1092 49.5915 54.1092 46.4828V23.7014ZM96.2168 63V23.7014H101.105L126.976 54.2077V23.7014H132.566V63H127.566L101.779 32.4656V63H96.2168ZM184.646 63V23.7014H190.264V63H184.646Z" fill="black"/>
<path d="M156.443 60.4403L136.794 26.4068L141.611 23.6258L158.732 53.2805L174.934 43.9264L177.462 48.3052L156.443 60.4403Z" fill="black"/>
<path d="M41.8703 64.2693L14.082 36.481L29.8929 20.6701L33.4286 24.2057L21.5505 36.0838L29.7738 44.307L41.2943 32.7865L44.8696 36.3619L33.3491 47.8824L45.8032 60.3365L41.8703 64.2693Z" fill="black"/>
</svg>
