<svg width="24" height="24" viewBox="0 0 24 24" fill="none" xmlns="http://www.w3.org/2000/svg">
<path fill-rule="evenodd" clip-rule="evenodd" d="M19.68 12.1823C19.68 11.615 19.6291 11.0695 19.5346 10.5459H12V13.6404H16.3055C16.12 14.6404 15.5564 15.4877 14.7091 16.055V18.0623H17.2946C18.8073 16.6695 19.68 14.6186 19.68 12.1823Z" fill="#4285F4"/>
<path fill-rule="evenodd" clip-rule="evenodd" d="M12.0002 20.0005C14.1602 20.0005 15.9711 19.2842 17.2947 18.0623L14.7093 16.0551C13.9929 16.5351 13.0765 16.8187 12.0002 16.8187C9.91654 16.8187 8.1529 15.4114 7.52381 13.5205H4.85107V15.5932C6.16744 18.2078 8.8729 20.0005 12.0002 20.0005Z" fill="#34A853"/>
<path fill-rule="evenodd" clip-rule="evenodd" d="M7.52364 13.52C7.36364 13.04 7.27273 12.5272 7.27273 12C7.27273 11.4727 7.36364 10.96 7.52364 10.48V8.40723H4.85091C4.30909 9.48723 4 10.709 4 12C4 13.2909 4.30909 14.5127 4.85091 15.5927L7.52364 13.52Z" fill="#FBBC05"/>
<path fill-rule="evenodd" clip-rule="evenodd" d="M12.0002 7.18182C13.1747 7.18182 14.2293 7.58546 15.0584 8.37819L17.3529 6.08364C15.9675 4.79273 14.1565 4 12.0002 4C8.8729 4 6.16744 5.79273 4.85107 8.40728L7.52381 10.48C8.1529 8.5891 9.91654 7.18182 12.0002 7.18182Z" fill="#EA4335"/>
</svg>
