<svg width="25" height="24" viewBox="0 0 25 24" fill="none" xmlns="http://www.w3.org/2000/svg">
<path d="M15.4258 16.4083C15.7526 16.1538 16.2241 16.2124 16.4785 16.5391C16.733 16.8659 16.6744 17.3374 16.3477 17.5918C15.4141 18.3186 14.2008 18.7501 12.8868 18.7501C11.6548 18.75 10.5118 18.3708 9.60453 17.7247L9.42582 17.5918L9.3682 17.542C9.09308 17.2795 9.05633 16.8457 9.29496 16.5391C9.53347 16.2329 9.96227 16.1625 10.2842 16.3643L10.3477 16.4083L10.6075 16.5928C11.2366 17.0018 12.0236 17.25 12.8868 17.2501C13.8731 17.2501 14.7604 16.9262 15.4258 16.4083Z" fill="url(#paint0_linear_238_3177)"/>
<path d="M15.4258 16.4083C15.7526 16.1538 16.2241 16.2124 16.4785 16.5391C16.733 16.8659 16.6744 17.3374 16.3477 17.5918C15.4141 18.3186 14.2008 18.7501 12.8868 18.7501C11.6548 18.75 10.5118 18.3708 9.60453 17.7247L9.42582 17.5918L9.3682 17.542C9.09308 17.2795 9.05633 16.8457 9.29496 16.5391C9.53347 16.2329 9.96227 16.1625 10.2842 16.3643L10.3477 16.4083L10.6075 16.5928C11.2366 17.0018 12.0236 17.25 12.8868 17.2501C13.8731 17.2501 14.7604 16.9262 15.4258 16.4083Z" fill="black"/>
<path d="M12.8874 1.25C13.7534 1.25 14.528 1.52704 15.3639 1.99609C16.1824 2.45541 17.1219 3.13583 18.3063 3.99219L19.7458 5.0332L21.029 5.97266C21.4086 6.25857 21.7409 6.52146 22.026 6.77441C22.6086 7.29126 23.0445 7.80699 23.321 8.45508L23.4157 8.69922C23.6137 9.27237 23.6601 9.86631 23.6276 10.5381C23.6004 11.1003 23.5146 11.7505 23.4001 12.5186L23.277 13.3271L22.9762 15.2861C22.729 16.8944 22.5345 18.1727 22.2467 19.166C21.9523 20.182 21.5368 20.9889 20.7956 21.6055C20.0575 22.2192 19.1781 22.4926 18.1042 22.623C17.0488 22.7512 15.7146 22.75 14.026 22.75H11.7487C10.0601 22.75 8.72594 22.7512 7.67056 22.623C6.59658 22.4926 5.71726 22.2192 4.97916 21.6055C4.2379 20.9889 3.82238 20.182 3.52799 19.166C3.31216 18.4211 3.14878 17.516 2.97623 16.4316L2.79849 15.2861L2.49771 13.3271C2.32358 12.194 2.18342 11.2877 2.14713 10.5381C2.10996 9.77046 2.17672 9.10463 2.45377 8.45508L2.56509 8.21777C2.84166 7.67804 3.23908 7.22657 3.74869 6.77441C4.31922 6.26826 5.07772 5.72098 6.02896 5.0332L7.46939 3.99219L8.31314 3.38379C9.11532 2.80959 9.79695 2.34059 10.4108 1.99609C11.2467 1.52703 12.0213 1.25 12.8874 1.25ZM12.8874 2.75C12.3704 2.75 11.8536 2.90616 11.1452 3.30371C10.6007 3.60926 9.98132 4.0343 9.194 4.59766L8.34732 5.20801L6.90787 6.24902C5.93236 6.95435 5.24533 7.45152 4.74381 7.89648C4.31535 8.27663 4.06091 8.58681 3.8981 8.90625L3.83365 9.04395C3.67644 9.4126 3.61441 9.83038 3.64517 10.4658C3.67683 11.1193 3.80129 11.9358 3.98013 13.0996L4.28092 15.0586L4.45963 16.207C4.62913 17.2709 4.77863 18.0907 4.96939 18.749C5.21718 19.604 5.51155 20.0973 5.93814 20.4521C6.36784 20.8095 6.92616 21.0214 7.85123 21.1338C8.79524 21.2484 10.0225 21.25 11.7487 21.25H14.026C15.7522 21.25 16.9795 21.2484 17.9235 21.1338C18.8486 21.0214 19.4069 20.8095 19.8366 20.4521C20.2632 20.0973 20.5575 19.604 20.8053 18.749C21.0597 17.8712 21.2405 16.7066 21.4938 15.0586L21.7946 13.0996L22.0172 11.5908C22.0746 11.1597 22.1137 10.7924 22.1295 10.4658C22.1565 9.90974 22.1125 9.5202 21.9958 9.18457L21.9411 9.04395C21.7832 8.67382 21.5205 8.33087 21.0309 7.89648C20.7802 7.67406 20.4828 7.439 20.1266 7.1709L18.8669 6.24902L17.4274 5.20801C16.2147 4.33116 15.3554 3.71106 14.6295 3.30371C13.9211 2.90614 13.4043 2.75 12.8874 2.75Z" fill="url(#paint1_linear_238_3177)"/>
<path d="M12.8874 1.25C13.7534 1.25 14.528 1.52704 15.3639 1.99609C16.1824 2.45541 17.1219 3.13583 18.3063 3.99219L19.7458 5.0332L21.029 5.97266C21.4086 6.25857 21.7409 6.52146 22.026 6.77441C22.6086 7.29126 23.0445 7.80699 23.321 8.45508L23.4157 8.69922C23.6137 9.27237 23.6601 9.86631 23.6276 10.5381C23.6004 11.1003 23.5146 11.7505 23.4001 12.5186L23.277 13.3271L22.9762 15.2861C22.729 16.8944 22.5345 18.1727 22.2467 19.166C21.9523 20.182 21.5368 20.9889 20.7956 21.6055C20.0575 22.2192 19.1781 22.4926 18.1042 22.623C17.0488 22.7512 15.7146 22.75 14.026 22.75H11.7487C10.0601 22.75 8.72594 22.7512 7.67056 22.623C6.59658 22.4926 5.71726 22.2192 4.97916 21.6055C4.2379 20.9889 3.82238 20.182 3.52799 19.166C3.31216 18.4211 3.14878 17.516 2.97623 16.4316L2.79849 15.2861L2.49771 13.3271C2.32358 12.194 2.18342 11.2877 2.14713 10.5381C2.10996 9.77046 2.17672 9.10463 2.45377 8.45508L2.56509 8.21777C2.84166 7.67804 3.23908 7.22657 3.74869 6.77441C4.31922 6.26826 5.07772 5.72098 6.02896 5.0332L7.46939 3.99219L8.31314 3.38379C9.11532 2.80959 9.79695 2.34059 10.4108 1.99609C11.2467 1.52703 12.0213 1.25 12.8874 1.25ZM12.8874 2.75C12.3704 2.75 11.8536 2.90616 11.1452 3.30371C10.6007 3.60926 9.98132 4.0343 9.194 4.59766L8.34732 5.20801L6.90787 6.24902C5.93236 6.95435 5.24533 7.45152 4.74381 7.89648C4.31535 8.27663 4.06091 8.58681 3.8981 8.90625L3.83365 9.04395C3.67644 9.4126 3.61441 9.83038 3.64517 10.4658C3.67683 11.1193 3.80129 11.9358 3.98013 13.0996L4.28092 15.0586L4.45963 16.207C4.62913 17.2709 4.77863 18.0907 4.96939 18.749C5.21718 19.604 5.51155 20.0973 5.93814 20.4521C6.36784 20.8095 6.92616 21.0214 7.85123 21.1338C8.79524 21.2484 10.0225 21.25 11.7487 21.25H14.026C15.7522 21.25 16.9795 21.2484 17.9235 21.1338C18.8486 21.0214 19.4069 20.8095 19.8366 20.4521C20.2632 20.0973 20.5575 19.604 20.8053 18.749C21.0597 17.8712 21.2405 16.7066 21.4938 15.0586L21.7946 13.0996L22.0172 11.5908C22.0746 11.1597 22.1137 10.7924 22.1295 10.4658C22.1565 9.90974 22.1125 9.5202 21.9958 9.18457L21.9411 9.04395C21.7832 8.67382 21.5205 8.33087 21.0309 7.89648C20.7802 7.67406 20.4828 7.439 20.1266 7.1709L18.8669 6.24902L17.4274 5.20801C16.2147 4.33116 15.3554 3.71106 14.6295 3.30371C13.9211 2.90614 13.4043 2.75 12.8874 2.75Z" fill="black"/>
<defs>
<linearGradient id="paint0_linear_238_3177" x1="9.13672" y1="16.3829" x2="12.7606" y2="21.3442" gradientUnits="userSpaceOnUse">
<stop stop-color="#FFDA79"/>
<stop offset="1" stop-color="#9FFD70"/>
</linearGradient>
<linearGradient id="paint1_linear_238_3177" x1="2.1377" y1="2.39272" x2="26.8499" y2="13.6701" gradientUnits="userSpaceOnUse">
<stop stop-color="#FFDA79"/>
<stop offset="1" stop-color="#9FFD70"/>
</linearGradient>
</defs>
</svg>
