<svg width="24" height="25" viewBox="0 0 24 25" fill="none" xmlns="http://www.w3.org/2000/svg">
<path d="M12 22.5C17.5228 22.5 22 18.0228 22 12.5C22 6.97715 17.5228 2.5 12 2.5C6.47715 2.5 2 6.97715 2 12.5C2 18.0228 6.47715 22.5 12 22.5Z" stroke="black" stroke-width="1.5"/>
<path d="M7 8.87931H11.5M11.5 8.87931H14.5M11.5 8.87931V7.5M17 8.87931H14.5M14.5 8.87931C13.9725 10.7656 12.8679 12.5487 11.6071 14.1158M11.6071 14.1158C10.5631 15.4134 9.41205 16.5628 8.39286 17.5M11.6071 14.1158C10.9643 13.3621 10.0643 12.1426 9.80714 11.5909M11.6071 14.1158L13.5357 16.1207" stroke="black" stroke-width="1.5" stroke-linecap="round" stroke-linejoin="round"/>
</svg>
