<svg width="22" height="23" viewBox="0 0 22 23" fill="none" xmlns="http://www.w3.org/2000/svg">
<path fill-rule="evenodd" clip-rule="evenodd" d="M14.2235 2.85464C14.7897 2.85464 15.3551 2.9345 15.8926 3.11487C19.2048 4.19171 20.3983 7.82606 19.4013 11.0027C18.836 12.6261 17.9117 14.1076 16.7011 15.3182C14.9683 16.9963 13.0668 18.4859 11.0199 19.7691L10.7955 19.9046L10.5622 19.7602C8.50815 18.4859 6.59586 16.9963 4.84689 15.3092C3.64441 14.0987 2.71923 12.6261 2.14491 11.0027C1.13088 7.82606 2.32438 4.19171 5.67247 3.09603C5.9327 3.00629 6.20102 2.94347 6.47023 2.90848H6.57791C6.83007 2.87169 7.08044 2.85464 7.3317 2.85464H7.43041C7.99575 2.87169 8.54315 2.9704 9.07349 3.15077H9.12644C9.16233 3.16782 9.18925 3.18666 9.2072 3.20371C9.40552 3.26742 9.59307 3.33921 9.77254 3.43792L10.1135 3.59048C10.1959 3.63442 10.2884 3.70157 10.3684 3.75961C10.419 3.79637 10.4646 3.82948 10.4994 3.85071C10.5141 3.85935 10.5289 3.86804 10.5439 3.8768C10.6209 3.92172 10.701 3.9685 10.7686 4.02032C11.7656 3.25845 12.9761 2.84566 14.2235 2.85464ZM16.6101 9.31628C16.978 9.30641 17.2921 9.01118 17.319 8.63338V8.5266C17.3459 7.26938 16.5841 6.13062 15.4256 5.69091C15.0577 5.56438 14.6538 5.7627 14.5192 6.1396C14.3936 6.51649 14.591 6.92928 14.9679 7.06299C15.5431 7.27836 15.9281 7.8446 15.9281 8.47186V8.49968C15.911 8.70517 15.973 8.90349 16.0986 9.05604C16.2242 9.2086 16.4127 9.29744 16.6101 9.31628Z" fill="url(#paint0_linear_313_2754)"/>
<defs>
<linearGradient id="paint0_linear_313_2754" x1="1.79492" y1="2.85449" x2="23.1457" y2="11.5059" gradientUnits="userSpaceOnUse">
<stop stop-color="#FF3B30"/>
<stop offset="0.120192" stop-color="#FF9500"/>
<stop offset="0.274038" stop-color="#FFCC00"/>
<stop offset="0.461538" stop-color="#34C759"/>
<stop offset="0.649038" stop-color="#007AFF"/>
<stop offset="0.793269" stop-color="#5856D6"/>
<stop offset="1" stop-color="#AF52DE"/>
</linearGradient>
</defs>
</svg>
