<svg width="36" height="36" viewBox="0 0 36 36" fill="none" xmlns="http://www.w3.org/2000/svg">
<g clip-path="url(#clip0_313_6297)">
<path d="M28.283 1.29149C28.283 0.803 28.0001 0.34022 27.5631 0.13454C27.1003 -0.0968495 26.5861 -0.0197196 26.2004 0.2888L14.8109 9.36442L28.283 22.8365V1.29149ZM35.6206 33.8043L2.19761 0.381356C1.69627 -0.119988 0.881259 -0.119988 0.379915 0.381356C-0.12143 0.882701 -0.12143 1.69771 0.379915 2.19905L8.46828 10.29H7.71497C6.91796 10.29 6.22379 10.6499 5.76101 11.2155C5.37536 11.6526 5.14397 12.2439 5.14397 12.861V23.145C5.14397 24.559 6.30092 25.716 7.71497 25.716H13.6797L26.2004 35.7172C26.4318 35.8971 26.7146 36 26.9975 36C27.1774 36 27.3831 35.9486 27.5631 35.8714C28.0001 35.6657 28.283 35.203 28.283 34.7145V30.1047L33.8003 35.622C34.0523 35.874 34.3814 36 34.7105 36C35.0395 36 35.3686 35.874 35.6206 35.6246C36.1219 35.1207 36.1219 34.3083 35.6206 33.8043Z" fill="white"/>
</g>
<defs>
<clipPath id="clip0_313_6297">
<rect width="36" height="36" fill="white"/>
</clipPath>
</defs>
</svg>
