<svg width="50" height="49" viewBox="0 0 50 49" fill="none" xmlns="http://www.w3.org/2000/svg">
<rect x="7" y="6.5" width="36" height="36" rx="18" fill="url(#paint0_linear_313_2819)"/>
<rect x="7" y="6.5" width="36" height="36" rx="18" fill="url(#paint1_linear_313_2819)"/>
<g filter="url(#filter0_f_313_2819)">
<rect x="7" y="6.5" width="36" height="36" rx="18" fill="url(#paint2_linear_313_2819)"/>
<rect x="7" y="6.5" width="36" height="36" rx="18" fill="url(#paint3_linear_313_2819)"/>
</g>
<rect opacity="0.8" x="9" y="8.5" width="32" height="32" rx="16" fill="black"/>
<path d="M32.5399 17.5438C30.7249 15.5891 17.0722 20.3773 17.0835 22.1255C17.0963 24.1079 22.4152 24.7178 23.8895 25.1314C24.7761 25.3801 25.0135 25.6351 25.2179 26.5648C26.1437 30.7751 26.6086 32.8693 27.668 32.916C29.3567 32.9907 34.3112 19.4513 32.5399 17.5438Z" stroke="white" stroke-width="1.5"/>
<path d="M24.5835 25.4167L27.5002 22.5" stroke="white" stroke-width="1.5" stroke-linecap="round" stroke-linejoin="round"/>
<defs>
<filter id="filter0_f_313_2819" x="0.8" y="0.3" width="48.4" height="48.4" filterUnits="userSpaceOnUse" color-interpolation-filters="sRGB">
<feFlood flood-opacity="0" result="BackgroundImageFix"/>
<feBlend mode="normal" in="SourceGraphic" in2="BackgroundImageFix" result="shape"/>
<feGaussianBlur stdDeviation="3.1" result="effect1_foregroundBlur_313_2819"/>
</filter>
<linearGradient id="paint0_linear_313_2819" x1="7" y1="8.41339" x2="48.3794" y2="27.2973" gradientUnits="userSpaceOnUse">
<stop stop-color="#FFDA79"/>
<stop offset="1" stop-color="#9FFD70"/>
</linearGradient>
<linearGradient id="paint1_linear_313_2819" x1="-1.9" y1="-0.657481" x2="56.1495" y2="19.1322" gradientUnits="userSpaceOnUse">
<stop stop-color="#6495ED"/>
<stop offset="0.195841" stop-color="#8A2BE2"/>
<stop offset="0.472736" stop-color="#BFF450"/>
<stop offset="0.758842" stop-color="#7FFFD4"/>
<stop offset="1" stop-color="#FFD700"/>
</linearGradient>
<linearGradient id="paint2_linear_313_2819" x1="7" y1="8.41339" x2="48.3794" y2="27.2973" gradientUnits="userSpaceOnUse">
<stop stop-color="#FFDA79"/>
<stop offset="1" stop-color="#9FFD70"/>
</linearGradient>
<linearGradient id="paint3_linear_313_2819" x1="-1.9" y1="-0.657481" x2="56.1495" y2="19.1322" gradientUnits="userSpaceOnUse">
<stop stop-color="#6495ED"/>
<stop offset="0.195841" stop-color="#8A2BE2"/>
<stop offset="0.472736" stop-color="#BFF450"/>
<stop offset="0.758842" stop-color="#7FFFD4"/>
<stop offset="1" stop-color="#FFD700"/>
</linearGradient>
</defs>
</svg>
