<svg width="36" height="36" viewBox="0 0 36 36" fill="none" xmlns="http://www.w3.org/2000/svg">
<path d="M29.1195 7.84623C30.8558 5.77227 30.5667 2.63703 28.4924 0.900391L19.3279 11.8498L22.5596 15.7083L29.1195 7.84623ZM16.6725 22.8006L13.4419 18.8939L10.5493 22.3661C9.96969 22.1729 9.34185 22.0763 8.66577 22.0763C5.09709 22.0763 2.15625 24.9689 2.15625 28.5858C2.15625 32.1545 5.04885 35.1004 8.66577 35.1004C12.2395 35.1004 15.1803 32.2031 15.1803 28.5858C15.1803 27.4752 14.8905 26.4175 14.4078 25.5003L16.6725 22.8006ZM8.71437 31.9615C6.83553 31.9615 5.29041 30.4207 5.29041 28.5379C5.29041 26.6591 6.83553 25.114 8.71401 25.114C10.5975 25.114 12.143 26.6591 12.143 28.5376C12.0944 30.4211 10.5975 31.9615 8.71437 31.9615Z" fill="white"/>
<path d="M27.3348 22.0756C26.658 22.0756 26.0316 22.1728 25.452 22.3672L7.50961 0.900391C5.43601 2.63919 5.14441 5.72439 6.88321 7.84479L21.5928 25.4524C21.1104 26.3704 20.8188 27.4324 20.8188 28.5376C20.8188 32.1052 23.7168 35.0536 27.3348 35.0536C30.9024 35.0536 33.8436 32.1556 33.8436 28.5376C33.7968 24.97 30.9024 22.0756 27.3348 22.0756ZM27.3348 31.9612C25.452 31.9612 23.9112 30.4204 23.9112 28.5376C23.9112 26.6584 25.452 25.114 27.3348 25.114C29.214 25.114 30.7584 26.6584 30.7584 28.5376C30.7584 30.4204 29.214 31.9612 27.3348 31.9612Z" fill="white"/>
</svg>
