<svg width="25" height="24" viewBox="0 0 25 24" fill="none" xmlns="http://www.w3.org/2000/svg">
<path d="M15.9097 9C15.9097 7.34315 14.5666 6 12.9097 6C11.2528 6 9.90967 7.34315 9.90967 9C9.90967 10.6569 11.2528 12 12.9097 12C14.5666 12 15.9097 10.6569 15.9097 9Z" stroke="white" stroke-width="1.5" stroke-linecap="round" stroke-linejoin="round"/>
<path d="M22.9097 12C22.9097 6.47715 18.4325 2 12.9097 2C7.38682 2 2.90967 6.47715 2.90967 12C2.90967 17.5228 7.38682 22 12.9097 22C18.4325 22 22.9097 17.5228 22.9097 12Z" stroke="white" stroke-width="1.5" stroke-linecap="round" stroke-linejoin="round"/>
<path d="M17.9097 17C17.9097 14.2386 15.6711 12 12.9097 12C10.1482 12 7.90967 14.2386 7.90967 17" stroke="white" stroke-width="1.5" stroke-linecap="round" stroke-linejoin="round"/>
</svg>
