<svg width="36" height="36" viewBox="0 0 36 36" fill="none" xmlns="http://www.w3.org/2000/svg">
<path d="M16.8447 22.3271C16.8447 22.9834 17.355 23.502 18 23.502C18.5775 23.502 19.067 23.0664 19.1445 22.4883L19.1553 22.3271V13.1699H26.3252C29.8951 13.17 32.8284 16.0363 32.9932 19.6416L33 19.9619V27.3945C32.9998 31.0266 30.183 33.9963 26.6533 34.1631L26.3398 34.1699H9.6748C6.09032 34.1698 3.17072 31.2895 3.00684 27.6973L3 27.3789V19.9316C3 16.3142 5.81683 13.3445 9.34668 13.1777L9.66016 13.1699H16.8447V22.3271ZM18 3C18.2399 3 18.48 3.07687 18.6738 3.22266L18.8105 3.34473L23.1758 7.72461C23.4008 7.9496 23.5205 8.25018 23.5205 8.53516C23.5205 8.83508 23.4007 9.1354 23.1758 9.36035C22.7668 9.76938 22.1218 9.80622 21.6699 9.47168L21.54 9.36035L19.1553 6.95996V13.1699H16.8457V6.95996L14.46 9.36035C14.01 9.80996 13.2751 9.81011 12.8252 9.36035C12.4025 8.95126 12.3646 8.30641 12.6992 7.85449L12.8105 7.72461L17.1758 3.34473C17.4007 3.12004 17.6853 3.00008 18 3Z" fill="white"/>
</svg>
