<svg width="32" height="32" viewBox="0 0 32 32" fill="none" xmlns="http://www.w3.org/2000/svg">
<path d="M15.874 6C19.1033 6.00011 21.3574 8.22594 21.3574 11.415V20.585C21.3574 23.7741 19.1033 25.9999 15.874 26H8.15137C4.922 26 2.66699 23.7741 2.66699 20.585V11.415C2.66699 8.22587 4.922 6 8.15137 6H15.874ZM26.6113 9.17188C27.1965 8.87432 27.8829 8.90517 28.4414 9.25684C29 9.6074 29.3339 10.2169 29.334 10.8828V21.1182C29.3339 21.7854 29 22.3926 28.4414 22.7432C28.1361 22.934 27.7951 23.0322 27.4512 23.0322C27.1645 23.0322 26.8774 22.9639 26.6094 22.8271L24.6348 21.8311C23.9042 21.4601 23.4512 20.7157 23.4512 19.8887V12.1104C23.4513 11.2822 23.9044 10.5381 24.6348 10.1699L26.6113 9.17188Z" fill="white"/>
</svg>
