<svg width="36" height="36" viewBox="0 0 36 36" fill="none" xmlns="http://www.w3.org/2000/svg">
<path d="M20.9208 1.31822C20.5032 1.11902 20.0112 1.17182 19.6512 1.46222L7.9776 10.8006H2.4C1.0776 10.8006 0 11.8782 0 13.2006V22.8006C0 24.1254 1.0776 25.2006 2.4 25.2006H7.9776L19.6488 34.539C19.8626 34.7082 20.1273 34.8004 20.4 34.8006C20.5776 34.8006 20.7552 34.7598 20.9208 34.6806C21.1243 34.5829 21.296 34.4297 21.4162 34.2386C21.5363 34.0475 21.6001 33.8263 21.6 33.6006V2.40062C21.5998 2.17464 21.536 1.95327 21.4159 1.76186C21.2958 1.57044 21.1242 1.4167 20.9208 1.31822ZM27.6744 9.51422C27.2016 9.04862 26.4432 9.05582 25.9776 9.52382C25.512 9.99662 25.5168 10.755 25.9872 11.223C27.8016 13.0134 28.8 15.4206 28.8 18.0006C28.8 20.5806 27.8016 22.9878 25.9872 24.7782C25.5168 25.2414 25.512 26.0022 25.9776 26.475C26.089 26.5877 26.2217 26.6772 26.3679 26.7382C26.5142 26.7991 26.6711 26.8304 26.8296 26.8302C27.1344 26.8302 27.4392 26.715 27.6744 26.4822C29.9496 24.243 31.2 21.2286 31.2 18.0006C31.2 14.7726 29.9496 11.7582 27.6744 9.51422Z" fill="white"/>
<path d="M31.0604 6.13249C30.5876 5.66449 29.8292 5.66929 29.3612 6.13969C28.8956 6.61009 28.9004 7.37089 29.3684 7.83649C32.0972 10.5413 33.5996 14.1509 33.5996 18.0005C33.5996 21.8501 32.0972 25.4573 29.3684 28.1621C28.9004 28.6301 28.8956 29.3909 29.3612 29.8613C29.5988 30.0965 29.906 30.2141 30.2132 30.2141C30.518 30.2141 30.8252 30.0989 31.0604 29.8661C34.2476 26.7101 35.9996 22.4957 35.9996 18.0005C35.9996 13.5053 34.2476 9.29089 31.0604 6.13249Z" fill="white"/>
</svg>
